G04 #@! TF.FileFunction,Copper,L2,Bot,Signal*
%FSLAX46Y46*%
G04 Gerber Fmt 4.6, Leading zero omitted, Abs format (unit mm)*
G04 Created by KiCad (PCBNEW 4.0.1-3.201512161002+6197~38~ubuntu14.04.1-stable) date Qui 28 Jan 2016 15:35:45 BRST*
%MOMM*%
G01*
G04 APERTURE LIST*
%ADD10C,0.100000*%
%ADD11R,1.778000X1.778000*%
%ADD12C,1.778000*%
%ADD13R,1.900000X2.000000*%
%ADD14C,1.900000*%
%ADD15O,2.199640X1.524000*%
%ADD16O,2.197100X1.524000*%
%ADD17R,2.032000X1.727200*%
%ADD18O,2.032000X1.727200*%
%ADD19O,1.600000X2.300000*%
%ADD20R,1.727200X1.727200*%
%ADD21O,1.727200X1.727200*%
%ADD22C,1.998980*%
%ADD23C,1.397000*%
%ADD24R,2.235200X2.235200*%
%ADD25C,0.800000*%
G04 APERTURE END LIST*
D10*
D11*
X63881000Y21844000D03*
D12*
X63881000Y26924000D03*
D11*
X63881000Y51054000D03*
D12*
X63881000Y56134000D03*
D13*
X91821000Y47244000D03*
D14*
X89281000Y47244000D03*
D13*
X91821000Y57404000D03*
D14*
X89281000Y57404000D03*
D13*
X91821000Y67564000D03*
D14*
X89281000Y67564000D03*
D15*
X74041000Y37084000D03*
X74041000Y39624000D03*
X74041000Y42164000D03*
X74041000Y44704000D03*
X74041000Y47244000D03*
X74041000Y49784000D03*
X74041000Y52324000D03*
X74041000Y54864000D03*
X74041000Y59944000D03*
X74041000Y62484000D03*
X74041000Y65024000D03*
X74041000Y67564000D03*
X74041000Y70104000D03*
X74041000Y72644000D03*
D16*
X25781000Y72644000D03*
X25781000Y70104000D03*
X25781000Y67564000D03*
X25781000Y65024000D03*
X25781000Y62484000D03*
X25781000Y59944000D03*
X25781000Y57404000D03*
X25781000Y54864000D03*
X25781000Y50800000D03*
X25781000Y48260000D03*
X25781000Y45720000D03*
X25781000Y43180000D03*
X25781000Y40640000D03*
X25781000Y38100000D03*
X25781000Y35560000D03*
X25781000Y33022540D03*
X25781000Y30480000D03*
X25781000Y27940000D03*
D17*
X13081000Y21844000D03*
D18*
X13081000Y19304000D03*
X13081000Y16764000D03*
X13081000Y14224000D03*
D19*
X39751000Y35179000D03*
X42291000Y35179000D03*
X44831000Y35179000D03*
X47371000Y35179000D03*
X47371000Y42799000D03*
X44831000Y42799000D03*
X42291000Y42799000D03*
X39751000Y42799000D03*
D20*
X11811000Y38100000D03*
D21*
X14351000Y38100000D03*
X11811000Y40640000D03*
X14351000Y40640000D03*
X11811000Y43180000D03*
X14351000Y43180000D03*
X11811000Y45720000D03*
X14351000Y45720000D03*
X11811000Y48260000D03*
X14351000Y48260000D03*
X11811000Y50800000D03*
X14351000Y50800000D03*
X11811000Y53340000D03*
X14351000Y53340000D03*
X11811000Y55880000D03*
X14351000Y55880000D03*
D22*
X36576000Y20574000D03*
X36576000Y10414000D03*
X46736000Y10414000D03*
X56896000Y10414000D03*
X42926000Y20574000D03*
X42926000Y10414000D03*
X46736000Y19304000D03*
X56896000Y19304000D03*
X46736000Y14859000D03*
X56896000Y14859000D03*
X46736000Y23749000D03*
X56896000Y23749000D03*
X39751000Y30734000D03*
X39751000Y20574000D03*
X54991000Y31369000D03*
X44831000Y31369000D03*
X52451000Y67564000D03*
X42291000Y67564000D03*
X37211000Y57404000D03*
X37211000Y67564000D03*
X42291000Y63119000D03*
X52451000Y63119000D03*
X53721000Y37719000D03*
X63881000Y37719000D03*
X42291000Y57404000D03*
X52451000Y57404000D03*
X39751000Y47879000D03*
X49911000Y47879000D03*
X48641000Y53594000D03*
X38481000Y53594000D03*
X53721000Y42799000D03*
X63881000Y42799000D03*
X81661000Y42164000D03*
X81661000Y32004000D03*
X81661000Y57404000D03*
X81661000Y47244000D03*
X81661000Y72644000D03*
X81661000Y62484000D03*
D23*
X84201000Y9144000D03*
X84201000Y14224000D03*
X91821000Y9144000D03*
X91821000Y14224000D03*
X84201000Y22860000D03*
X84201000Y27940000D03*
X91821000Y22860000D03*
X91821000Y27940000D03*
D24*
X5080000Y42799000D03*
X98298000Y42799000D03*
D25*
X61976000Y23749000D02*
X63881000Y21844000D01*
X56896000Y23749000D02*
X61976000Y23749000D01*
X72263000Y59944000D02*
X70993000Y58674000D01*
X70993000Y58674000D02*
X70993000Y28956000D01*
X70993000Y28956000D02*
X63881000Y21844000D01*
X74041000Y59944000D02*
X72263000Y59944000D01*
X51181000Y35179000D02*
X54991000Y31369000D01*
X47371000Y35179000D02*
X51181000Y35179000D01*
X54991000Y10414000D02*
X51816000Y13589000D01*
X51816000Y13589000D02*
X51816000Y28194000D01*
X51816000Y28194000D02*
X54991000Y31369000D01*
X56896000Y10414000D02*
X54991000Y10414000D01*
X56896000Y63119000D02*
X63881000Y56134000D01*
X52451000Y63119000D02*
X56896000Y63119000D01*
X61341000Y37719000D02*
X63881000Y37719000D01*
X54991000Y31369000D02*
X61341000Y37719000D01*
X13081000Y19304000D02*
X13081000Y16764000D01*
X11811000Y55880000D02*
X14351000Y55880000D01*
X11811000Y38100000D02*
X14351000Y38100000D01*
X91821000Y47244000D02*
X91821000Y57404000D01*
X91821000Y59944000D02*
X91821000Y57404000D01*
X91821000Y67564000D02*
X91821000Y59944000D01*
X16891000Y35560000D02*
X14351000Y38100000D01*
X25781000Y35560000D02*
X16891000Y35560000D01*
X11049000Y19304000D02*
X10033000Y20320000D01*
X10033000Y20320000D02*
X10033000Y36322000D01*
X10033000Y36322000D02*
X11811000Y38100000D01*
X13081000Y19304000D02*
X11049000Y19304000D01*
X76327000Y52324000D02*
X78867000Y54864000D01*
X78867000Y54864000D02*
X78867000Y58420000D01*
X78867000Y58420000D02*
X80391000Y59944000D01*
X80391000Y59944000D02*
X91821000Y59944000D01*
X74041000Y52324000D02*
X76327000Y52324000D01*
X84201000Y27940000D02*
X91821000Y27940000D01*
X91821000Y14224000D02*
X84201000Y14224000D01*
X63881000Y26924000D02*
X63881000Y37719000D01*
X93853000Y25908000D02*
X93853000Y16256000D01*
X93853000Y16256000D02*
X91821000Y14224000D01*
X91821000Y27940000D02*
X93853000Y25908000D01*
X91821000Y27940000D02*
X91821000Y47244000D01*
X74041000Y52324000D02*
X74041000Y49784000D01*
X27305000Y35560000D02*
X29591000Y37846000D01*
X29591000Y37846000D02*
X29591000Y51054000D01*
X29591000Y51054000D02*
X27813000Y52832000D01*
X27813000Y52832000D02*
X21463000Y52832000D01*
X21463000Y52832000D02*
X18415000Y55880000D01*
X18415000Y55880000D02*
X14351000Y55880000D01*
X25781000Y35560000D02*
X27305000Y35560000D01*
X57531000Y57404000D02*
X63881000Y51054000D01*
X52451000Y57404000D02*
X57531000Y57404000D01*
X69469000Y56642000D02*
X69469000Y60960000D01*
X69469000Y60960000D02*
X70993000Y62484000D01*
X70993000Y62484000D02*
X74041000Y62484000D01*
X63881000Y51054000D02*
X69469000Y56642000D01*
X84201000Y42164000D02*
X89281000Y47244000D01*
X81661000Y42164000D02*
X84201000Y42164000D01*
X89281000Y57404000D02*
X81661000Y57404000D01*
X86741000Y67564000D02*
X81661000Y72644000D01*
X89281000Y67564000D02*
X86741000Y67564000D01*
X14351000Y40640000D02*
X11811000Y40640000D01*
X9779000Y40640000D02*
X8509000Y39370000D01*
X8509000Y39370000D02*
X8509000Y14986000D01*
X8509000Y14986000D02*
X17145000Y6350000D01*
X17145000Y6350000D02*
X66421000Y6350000D01*
X66421000Y6350000D02*
X78359000Y18288000D01*
X78359000Y18288000D02*
X78359000Y42672000D01*
X78359000Y42672000D02*
X76327000Y44704000D01*
X76327000Y44704000D02*
X74041000Y44704000D01*
X11811000Y40640000D02*
X9779000Y40640000D01*
X36576000Y17399000D02*
X36576000Y20574000D01*
X39116000Y14859000D02*
X36576000Y17399000D01*
X47371000Y14859000D02*
X39116000Y14859000D01*
X39751000Y42799000D02*
X39751000Y47879000D01*
X39751000Y47879000D02*
X39751000Y48514000D01*
X35306000Y52324000D02*
X35306000Y55499000D01*
X35306000Y55499000D02*
X37211000Y57404000D01*
X39751000Y47879000D02*
X35306000Y52324000D01*
X35306000Y38354000D02*
X39751000Y42799000D01*
X35306000Y28829000D02*
X35306000Y38354000D01*
X36576000Y27559000D02*
X35306000Y28829000D01*
X36576000Y20574000D02*
X36576000Y27559000D01*
X91821000Y22860000D02*
X84201000Y22860000D01*
X91821000Y9144000D02*
X84201000Y9144000D01*
X28575000Y62484000D02*
X34417000Y68326000D01*
X34417000Y68326000D02*
X34417000Y73660000D01*
X34417000Y73660000D02*
X39243000Y78486000D01*
X39243000Y78486000D02*
X73533000Y78486000D01*
X73533000Y78486000D02*
X78613000Y73406000D01*
X78613000Y73406000D02*
X78613000Y65532000D01*
X78613000Y65532000D02*
X81661000Y62484000D01*
X25781000Y62484000D02*
X28575000Y62484000D01*
X25527000Y45974000D02*
X25781000Y45720000D01*
X11811000Y45720000D02*
X14351000Y45720000D01*
X11811000Y48260000D02*
X14351000Y48260000D01*
X24765000Y40640000D02*
X25781000Y40640000D01*
X11811000Y53594000D02*
X14351000Y53594000D01*
X24257000Y40640000D02*
X25781000Y40640000D01*
X16891000Y53340000D02*
X21336000Y48895000D01*
X14351000Y53340000D02*
X16891000Y53340000D01*
X21336000Y43561000D02*
X21336000Y48895000D01*
X21336000Y42037000D02*
X22733000Y40640000D01*
X22733000Y40640000D02*
X24257000Y40640000D01*
X21336000Y43561000D02*
X21336000Y42037000D01*
X24765000Y38100000D02*
X25781000Y38100000D01*
X11811000Y50800000D02*
X14351000Y50800000D01*
X24003000Y38100000D02*
X25781000Y38100000D01*
X17268998Y50800000D02*
X19431000Y48637998D01*
X14351000Y50800000D02*
X17268998Y50800000D01*
X19431000Y42672000D02*
X19431000Y48637998D01*
X19431000Y42672000D02*
X19431000Y48637998D01*
X19431000Y40640000D02*
X21971000Y38100000D01*
X21971000Y38100000D02*
X24003000Y38100000D01*
X19431000Y42672000D02*
X19431000Y40640000D01*
X54991000Y47879000D02*
X60071000Y42799000D01*
X60071000Y42799000D02*
X63881000Y42799000D01*
X49911000Y47879000D02*
X54991000Y47879000D01*
X56896000Y14859000D02*
X56896000Y19304000D01*
X56896000Y19304000D02*
X56261000Y19304000D01*
X58166000Y14859000D02*
X61341000Y11684000D01*
X61341000Y11684000D02*
X61341000Y9144000D01*
X61341000Y9144000D02*
X60071000Y7874000D01*
X60071000Y7874000D02*
X19431000Y7874000D01*
X19431000Y7874000D02*
X13081000Y14224000D01*
X56896000Y14859000D02*
X58166000Y14859000D01*
X39751000Y30734000D02*
X39751000Y35179000D01*
X46736000Y23749000D02*
X39751000Y30734000D01*
X39751000Y20574000D02*
X42926000Y20574000D01*
X39751000Y26924000D02*
X37211000Y29464000D01*
X37211000Y29464000D02*
X37211000Y36449000D01*
X37211000Y36449000D02*
X39116000Y38354000D01*
X39116000Y38354000D02*
X41021000Y38354000D01*
X41021000Y38354000D02*
X42291000Y37084000D01*
X42291000Y37084000D02*
X42291000Y35179000D01*
X39751000Y20574000D02*
X39751000Y26924000D01*
X44831000Y31369000D02*
X44831000Y35179000D01*
X48006000Y19304000D02*
X49911000Y21209000D01*
X49911000Y21209000D02*
X49911000Y26289000D01*
X49911000Y26289000D02*
X44831000Y31369000D01*
X46736000Y19304000D02*
X48006000Y19304000D01*
X54356000Y42799000D02*
X53721000Y42799000D01*
X47371000Y42799000D02*
X54356000Y42799000D01*
X53721000Y42799000D02*
X53721000Y37719000D01*
X44831000Y49784000D02*
X48641000Y53594000D01*
X44831000Y42799000D02*
X44831000Y49784000D01*
X48006000Y67564000D02*
X44831000Y64389000D01*
X44831000Y64389000D02*
X44831000Y57404000D01*
X44831000Y57404000D02*
X48641000Y53594000D01*
X52451000Y67564000D02*
X48006000Y67564000D01*
X42291000Y49784000D02*
X38481000Y53594000D01*
X42291000Y42799000D02*
X42291000Y49784000D01*
X38481000Y53594000D02*
X42291000Y57404000D01*
X36576000Y10414000D02*
X42926000Y10414000D01*
X47371000Y10414000D02*
X42926000Y10414000D01*
X37211000Y67564000D02*
X42291000Y67564000D01*
X42291000Y63119000D02*
X42291000Y67564000D01*
M02*
