G04 #@! TF.FileFunction,Profile,NP*
%FSLAX46Y46*%
G04 Gerber Fmt 4.6, Leading zero omitted, Abs format (unit mm)*
G04 Created by KiCad (PCBNEW 4.0.1-3.201512161002+6197~38~ubuntu14.04.1-stable) date Qui 28 Jan 2016 16:24:51 BRST*
%MOMM*%
G01*
G04 APERTURE LIST*
%ADD10C,0.100000*%
%ADD11C,0.254000*%
G04 APERTURE END LIST*
D10*
X7239000Y14478000D02*
X7239000Y15494000D01*
X16637000Y5080000D02*
X7239000Y14478000D01*
X90551000Y5080000D02*
X91567000Y6096000D01*
X16637000Y5080000D02*
X90551000Y5080000D01*
X7239000Y61468000D02*
X26289000Y80518000D01*
X7239000Y15494000D02*
X7239000Y61468000D01*
X7239000Y15240000D02*
X7239000Y15494000D01*
X85725000Y80518000D02*
X26289000Y80518000D01*
X96139000Y70104000D02*
X85725000Y80518000D01*
X96139000Y10668000D02*
X96139000Y70104000D01*
X91567000Y6096000D02*
X96139000Y10668000D01*
D11*
G36*
X96012000Y70051394D02*
X96012000Y44577000D01*
X96022006Y44527590D01*
X96050447Y44485965D01*
X96092841Y44458685D01*
X96139000Y44450000D01*
X99949000Y44450000D01*
X99949000Y41148000D01*
X96139000Y41148000D01*
X96089590Y41137994D01*
X96047965Y41109553D01*
X96020685Y41067159D01*
X96012000Y41021000D01*
X96012000Y10720606D01*
X90498394Y5207000D01*
X16689606Y5207000D01*
X7366000Y14530606D01*
X7366000Y41021000D01*
X7355994Y41070410D01*
X7327553Y41112035D01*
X7285159Y41139315D01*
X7239000Y41148000D01*
X3429000Y41148000D01*
X3429000Y44450000D01*
X7239000Y44450000D01*
X7288410Y44460006D01*
X7330035Y44488447D01*
X7357315Y44530841D01*
X7366000Y44577000D01*
X7366000Y61415394D01*
X26341606Y80391000D01*
X85672394Y80391000D01*
X96012000Y70051394D01*
X96012000Y70051394D01*
G37*
X96012000Y70051394D02*
X96012000Y44577000D01*
X96022006Y44527590D01*
X96050447Y44485965D01*
X96092841Y44458685D01*
X96139000Y44450000D01*
X99949000Y44450000D01*
X99949000Y41148000D01*
X96139000Y41148000D01*
X96089590Y41137994D01*
X96047965Y41109553D01*
X96020685Y41067159D01*
X96012000Y41021000D01*
X96012000Y10720606D01*
X90498394Y5207000D01*
X16689606Y5207000D01*
X7366000Y14530606D01*
X7366000Y41021000D01*
X7355994Y41070410D01*
X7327553Y41112035D01*
X7285159Y41139315D01*
X7239000Y41148000D01*
X3429000Y41148000D01*
X3429000Y44450000D01*
X7239000Y44450000D01*
X7288410Y44460006D01*
X7330035Y44488447D01*
X7357315Y44530841D01*
X7366000Y44577000D01*
X7366000Y61415394D01*
X26341606Y80391000D01*
X85672394Y80391000D01*
X96012000Y70051394D01*
M02*
