M48
;DRILL file {KiCad 4.0.1-3.201512161002+6197~38~ubuntu14.04.1-stable} date Qui 28 Jan 2016 15:57:43 BRST
;FORMAT={-:-/ absolute / metric / decimal}
FMAT,2
METRIC,TZ
T1C0.320
T2C0.800
T3C0.813
T4C0.998
T5C1.001
T6C1.016
%
G90
G05
M71
T1
X5.08Y42.799
X98.298Y42.799
T2
X39.751Y42.799
X39.751Y35.179
X42.291Y42.799
X42.291Y35.179
X44.831Y42.799
X44.831Y35.179
X47.371Y42.799
X47.371Y35.179
T3
X84.201Y27.94
X84.201Y22.86
X84.201Y14.224
X84.201Y9.144
X91.821Y27.94
X91.821Y22.86
X91.821Y14.224
X91.821Y9.144
T4
X25.781Y72.644
X25.781Y70.104
X25.781Y67.564
X25.781Y65.024
X25.781Y62.484
X25.781Y59.944
X25.781Y57.404
X25.781Y54.864
X25.781Y50.8
X25.781Y48.26
X25.781Y45.72
X25.781Y43.18
X25.781Y40.64
X25.781Y38.1
X25.781Y35.56
X25.781Y33.023
X25.781Y30.48
X25.781Y27.94
T5
X36.576Y20.574
X36.576Y10.414
X37.211Y67.564
X37.211Y57.404
X38.481Y53.594
X39.751Y47.879
X39.751Y30.734
X39.751Y20.574
X42.291Y67.564
X42.291Y63.119
X42.291Y57.404
X42.926Y20.574
X42.926Y10.414
X44.831Y31.369
X46.736Y23.749
X46.736Y19.304
X46.736Y14.859
X46.736Y10.414
X48.641Y53.594
X49.911Y47.879
X52.451Y67.564
X52.451Y63.119
X52.451Y57.404
X53.721Y42.799
X53.721Y37.719
X54.991Y31.369
X56.896Y23.749
X56.896Y19.304
X56.896Y14.859
X56.896Y10.414
X63.881Y42.799
X63.881Y37.719
X74.041Y72.644
X74.041Y70.104
X74.041Y67.564
X74.041Y65.024
X74.041Y62.484
X74.041Y59.944
X74.041Y54.864
X74.041Y52.324
X74.041Y49.784
X74.041Y47.244
X74.041Y44.704
X74.041Y42.164
X74.041Y39.624
X74.041Y37.084
X81.661Y72.644
X81.661Y62.484
X81.661Y57.404
X81.661Y47.244
X81.661Y42.164
X81.661Y32.004
X89.281Y67.564
X89.281Y57.404
X89.281Y47.244
X91.821Y67.564
X91.821Y57.404
X91.821Y47.244
T6
X11.811Y55.88
X11.811Y53.34
X11.811Y50.8
X11.811Y48.26
X11.811Y45.72
X11.811Y43.18
X11.811Y40.64
X11.811Y38.1
X13.081Y21.844
X13.081Y19.304
X13.081Y16.764
X13.081Y14.224
X14.351Y55.88
X14.351Y53.34
X14.351Y50.8
X14.351Y48.26
X14.351Y45.72
X14.351Y43.18
X14.351Y40.64
X14.351Y38.1
X63.881Y56.134
X63.881Y51.054
X63.881Y26.924
X63.881Y21.844
T0
M30
