M48
;DRILL file {kicad (2014-11-09 BZR 5259)-product} date Ter 07 Abr 2015 16:37:47 BRT
;FORMAT={-:-/ absolute / metric / decimal}
FMAT,2
METRIC,TZ
T1C0.800
T2C0.998
T3C1.001
%
G90
G05
M71
T1
X141.084Y-127.116
X141.084Y-129.616
X141.44Y-140.896
X141.44Y-143.396
T2
X129.54Y-118.11
X129.54Y-120.65
X129.54Y-123.19
X129.54Y-125.73
X129.54Y-128.27
X129.54Y-130.81
X129.54Y-133.35
X129.54Y-135.89
X129.55Y-140.973
X129.55Y-143.513
X151.211Y-126.975
X151.211Y-129.515
X151.308Y-140.97
X151.308Y-143.51
T3
X135.397Y-128.344
X135.397Y-143.344
X135.56Y-122.682
X145.72Y-122.682
T0
M30
